<?xml version="1.0" standalone="no"?>
<!DOCTYPE svg PUBLIC "-//W3C//DTD SVG 20010904//EN"
 "http://www.w3.org/TR/2001/REC-SVG-20010904/DTD/svg10.dtd">
<svg version="1.0" xmlns="http://www.w3.org/2000/svg"
 width="559.000000pt" height="897.000000pt" viewBox="0 0 559.000000 897.000000"
 preserveAspectRatio="xMidYMid meet">

<g transform="translate(0.000000,897.000000) scale(0.100000,-0.100000)"
fill="#000000" stroke="none">
<path d="M580 8906 c-5 -15 -7 -130 -3 -283 4 -190 3 -264 -6 -281 -11 -21
-15 -22 -269 -24 l-257 -3 -2 -465 c-1 -256 2 -1223 7 -2150 5 -927 11 -2279
14 -3005 3 -726 9 -1616 12 -1978 l7 -658 1206 4 c1327 4 1226 0 1551 71 111
24 326 105 466 175 113 56 300 177 391 254 169 141 270 243 399 402 45 55 110
127 145 161 35 33 102 96 148 140 210 198 344 367 511 644 152 252 320 648
408 965 57 203 70 257 111 450 31 148 74 429 91 586 63 618 55 1378 -21 1904
-126 877 -367 1541 -756 2085 -358 499 -883 859 -1416 970 -271 56 -194 53
-1510 57 l-1217 4 -10 -25z m2367 -96 c583 -45 1053 -260 1461 -668 150 -150
228 -245 350 -428 254 -379 462 -889 571 -1399 12 -55 26 -118 31 -140 40
-178 87 -540 111 -850 17 -213 17 -936 1 -1125 -52 -596 -146 -1068 -300
-1511 -116 -334 -302 -698 -477 -934 -275 -371 -544 -601 -910 -780 -164 -80
-350 -144 -505 -175 -253 -50 -256 -50 -1471 -50 l-1139 0 0 203 c0 281 -18
4678 -26 6419 l-6 1438 548 3 c1392 6 1647 6 1761 -3z"/>
<path d="M1725 4773 c4 -1390 10 -2530 13 -2533 4 -3 293 -2 642 1 559 5 644
7 710 23 499 118 866 470 1094 1049 107 271 175 579 217 987 17 158 17 727 0
905 -59 628 -197 1087 -437 1445 -218 328 -515 539 -879 627 -61 15 -152 17
-719 20 l-649 4 8 -2528z m760 1808 c363 -64 663 -272 891 -618 65 -99 204
-366 204 -393 0 -6 4 -18 10 -28 10 -18 56 -152 71 -209 5 -18 14 -50 19 -70
20 -75 68 -320 79 -403 6 -47 13 -101 16 -120 11 -73 26 -282 32 -460 12 -374
-40 -877 -124 -1190 -8 -30 -18 -68 -23 -85 -10 -38 -38 -123 -50 -150 -4 -11
-19 -49 -33 -85 -55 -141 -95 -218 -129 -243 -50 -37 -131 -76 -227 -107 -205
-66 -275 -72 -886 -68 l-520 3 -6 255 c-7 286 -11 3984 -5 3991 9 9 616 -9
681 -20z"/>
</g>
</svg>
